<svg width="24" height="25" viewBox="0 0 24 25" fill="none" xmlns="http://www.w3.org/2000/svg">
<path d="M6.60059 0.950195H16.2002C16.2729 0.950195 16.3431 0.978839 16.3945 1.03027L22.8701 7.50586C22.9215 7.55729 22.9502 7.62747 22.9502 7.7002V22.0996C22.9502 23.1766 22.077 24.0498 21 24.0498H6.60059C5.52363 24.0498 4.65039 23.1766 4.65039 22.0996V2.90039C4.65039 1.82344 5.52363 0.950195 6.60059 0.950195Z" fill="white" stroke="#D5D7DA" stroke-width="0.9"/>
<path d="M16.2002 0.799999V5.3C16.2002 6.62548 17.2747 7.7 18.6002 7.7H23.1002" stroke="#D5D7DA" stroke-width="0.9"/>
<rect x="0.600098" y="11.4" width="15.6" height="9.4" rx="1.2" fill="#D92D20"/>
<path d="M2.89928 18.6V14.2364H4.62087C4.95184 14.2364 5.2338 14.2996 5.46675 14.426C5.69971 14.551 5.87726 14.725 5.99942 14.948C6.123 15.1696 6.18479 15.4253 6.18479 15.7151C6.18479 16.0048 6.12229 16.2605 5.99729 16.4821C5.87229 16.7037 5.69118 16.8763 5.45397 16.9999C5.21817 17.1234 4.93266 17.1852 4.59743 17.1852H3.50013V16.4459H4.44829C4.62584 16.4459 4.77215 16.4153 4.88721 16.3543C5.00368 16.2918 5.09033 16.2058 5.14715 16.0965C5.20539 15.9857 5.23451 15.8585 5.23451 15.7151C5.23451 15.5702 5.20539 15.4438 5.14715 15.3358C5.09033 15.2264 5.00368 15.1419 4.88721 15.0822C4.77073 15.0212 4.623 14.9906 4.44403 14.9906H3.82187V18.6H2.89928ZM8.33092 18.6H6.78405V14.2364H8.34371C8.78263 14.2364 9.16047 14.3237 9.47723 14.4984C9.79399 14.6717 10.0376 14.921 10.2081 15.2463C10.3799 15.5716 10.4659 15.9608 10.4659 16.4139C10.4659 16.8685 10.3799 17.2591 10.2081 17.5858C10.0376 17.9125 9.79257 18.1632 9.47297 18.3379C9.15479 18.5126 8.7741 18.6 8.33092 18.6ZM7.70663 17.8095H8.29257C8.5653 17.8095 8.7947 17.7612 8.98078 17.6646C9.16828 17.5666 9.3089 17.4153 9.40265 17.2108C9.49782 17.0048 9.54541 16.7392 9.54541 16.4139C9.54541 16.0915 9.49782 15.828 9.40265 15.6234C9.3089 15.4189 9.16899 15.2683 8.98291 15.1717C8.79683 15.0751 8.56743 15.0268 8.2947 15.0268H7.70663V17.8095ZM11.1493 18.6V14.2364H14.0385V14.997H12.0719V16.0368H13.8467V16.7974H12.0719V18.6H11.1493Z" fill="white"/>
</svg>
